<?xml version="1.0" encoding="UTF-8" standalone="no"?>
<!-- Created with Inkscape (http://www.inkscape.org/) -->

<svg
   width="63.999996"
   height="63.999996"
   viewBox="0 0 16.933332 16.933332"
   version="1.1"
   id="svg5"
   xml:space="preserve"
   xmlns:inkscape="http://www.inkscape.org/namespaces/inkscape"
   xmlns:sodipodi="http://sodipodi.sourceforge.net/DTD/sodipodi-0.dtd"
   xmlns="http://www.w3.org/2000/svg"
   xmlns:svg="http://www.w3.org/2000/svg"><sodipodi:namedview
     id="namedview7"
     pagecolor="#ffffff"
     bordercolor="#000000"
     borderopacity="0.25"
     inkscape:showpageshadow="2"
     inkscape:pageopacity="0.0"
     inkscape:pagecheckerboard="0"
     inkscape:deskcolor="#d1d1d1"
     inkscape:document-units="px"
     showgrid="true"
     inkscape:zoom="8.25"
     inkscape:cx="31.939394"
     inkscape:cy="32"
     inkscape:window-width="1366"
     inkscape:window-height="705"
     inkscape:window-x="-8"
     inkscape:window-y="-8"
     inkscape:window-maximized="1"
     inkscape:current-layer="layer1"
     showguides="false" /><defs
     id="defs2" /><g
     inkscape:label="Layer 1"
     inkscape:groupmode="layer"
     id="layer1"><rect
       style="fill:#262626;fill-opacity:1;fill-rule:evenodd;stroke:none;stroke-width:0;stroke-linecap:square;stroke-linejoin:miter;stroke-dasharray:none;stroke-opacity:1"
       id="rect3634"
       width="16.933332"
       height="16.933332"
       x="0"
       y="0"
       ry="8.4666662" /><path
       id="path3299"
       style="color:#000000;fill:#ffffff;fill-opacity:1;fill-rule:evenodd;stroke-width:1.67479;stroke-linecap:round;stroke-dasharray:none"
       d="m 7.2789848,4.1027464 c -0.033163,-2.11e-4 -0.066354,3.25e-4 -0.099525,8.623e-4 -0.796091,0.012974 -1.5951514,0.2438461 -2.3055112,0.707058 -1.8942936,1.235232 -2.5312884,3.7240551 -1.4625804,5.7170453 0.9722905,1.813186 3.0671719,2.677559 5.0013326,2.145408 a 0.44310157,0.44310157 0 0 1 -0.00519,-0.06577 V 11.74711 C 6.8002401,12.313318 5.0106228,11.632257 4.1937189,10.108846 3.3386563,8.5142737 3.8421194,6.5415077 5.3577253,5.5532108 6.8733313,4.5649138 8.8821518,4.8996412 9.9964413,6.3251764 a 0.44310157,0.44310157 0 0 0 0.6239767,0.074428 0.44310157,0.44310157 0 0 0 0.07529,-0.6213803 C 9.9993588,4.8873646 9.0158888,4.3361264 7.9713304,4.1624614 7.7428335,4.1244722 7.5111205,4.1042248 7.2789848,4.1027464 Z M 13.615679,7.0685825 A 0.44314588,0.44314588 0 0 0 13.208061,7.2961914 L 11.379402,10.590026 9.5507442,7.2961914 A 0.44314588,0.44314588 0 0 0 9.0505243,7.0832949 0.44314588,0.44314588 0 0 0 8.7199293,7.511684 v 4.874114 a 0.44310157,0.44310157 0 0 0 0.4413705,0.444833 0.44310157,0.44310157 0 0 0 0.4448319,-0.444833 V 9.2226434 l 1.3838263,2.4924456 a 0.44314588,0.44314588 0 0 0 0.775427,0 l 1.387288,-2.4959073 v 3.1666163 a 0.44310157,0.44310157 0 0 0 0.441371,0.444833 0.44310157,0.44310157 0 0 0 0.444832,-0.444833 V 7.511684 A 0.44314588,0.44314588 0 0 0 13.615679,7.0685825 Z" /></g></svg>
